# 3ds Max Wavefront OBJ Exporter v0.97b - (c)2007 guruware
# File Created: 22.03.2019 12:21:10

mtllib arbuste carre.mtl

#
# object pot_d_arbuste_unity
#

v  -481.6816 100.0000 331.7223
v  -431.6816 100.0000 331.7223
v  -431.6816 100.0000 281.7223
v  -481.6816 100.0000 281.7223
v  -481.6816 0.0000 331.7223
v  -431.6816 0.0000 331.7223
v  -431.6816 0.0000 281.7223
v  -481.6816 0.0000 281.7223
# 8 vertices

vn 0.0000 1.0000 -0.0000
vn 0.0000 0.0000 1.0000
vn 1.0000 0.0000 -0.0000
vn 0.0000 0.0000 -1.0000
vn -1.0000 0.0000 -0.0000
# 5 vertex normals

vt 0.0000 0.0000 0.0000
vt 1.0000 0.0000 0.0000
vt 1.0000 1.0000 0.0000
vt 0.0000 1.0000 0.0000
# 4 texture coords

o pot_d_arbuste_unity
g pot_d_arbuste_unity
usemtl wire_184155229
s 4
f 1/1/1 2/2/1 3/3/1 
f 3/3/1 4/4/1 1/1/1 
s 8
f 5/1/2 6/2/2 2/3/2 
f 2/3/2 1/4/2 5/1/2 
s 16
f 6/1/3 7/2/3 3/3/3 
f 3/3/3 2/4/3 6/1/3 
s 32
f 7/1/4 8/2/4 4/3/4 
f 4/3/4 3/4/4 7/1/4 
s 64
f 8/1/5 5/2/5 1/3/5 
f 1/3/5 4/4/5 8/1/5 
# 10 faces

#
# object tronc_arbuste_unity
#

v  -453.6104 100.0000 306.0964
v  -456.1104 100.0000 301.7663
v  -456.1104 200.0000 301.7663
v  -453.6104 200.0000 306.0964
v  -461.1104 100.0000 301.7663
v  -461.1104 200.0000 301.7663
v  -463.6104 100.0000 306.0964
v  -463.6104 200.0000 306.0964
v  -461.1104 100.0000 310.4265
v  -461.1104 200.0000 310.4265
v  -456.1104 100.0000 310.4265
v  -456.1104 200.0000 310.4265
# 12 vertices

vn 1.0000 0.0000 0.0000
vn 0.5000 0.0000 -0.8660
vn -0.5000 0.0000 -0.8660
vn -1.0000 0.0000 0.0000
vn -0.5000 0.0000 0.8660
vn 0.5000 0.0000 0.8660
# 6 vertex normals

vt 0.7500 0.0000 1.0000
vt 0.9167 0.0000 1.0000
vt 0.9167 1.0000 1.0000
vt 0.7500 1.0000 1.0000
vt -0.0833 0.0000 1.0000
vt 0.0833 0.0000 1.0000
vt 0.0833 1.0000 1.0000
vt -0.0833 1.0000 1.0000
vt 0.2500 0.0000 1.0000
vt 0.2500 1.0000 1.0000
vt 0.4167 0.0000 1.0000
vt 0.4167 1.0000 1.0000
vt 0.5833 0.0000 1.0000
vt 0.5833 1.0000 1.0000
# 14 texture coords

o tronc_arbuste_unity
g tronc_arbuste_unity
usemtl wire_154154229
s 8
f 9/5/6 10/6/7 11/7/7 
f 11/7/7 12/8/6 9/5/6 
f 10/9/7 13/10/8 14/11/8 
f 14/11/8 11/12/7 10/9/7 
f 13/10/8 15/13/9 16/14/9 
f 16/14/9 14/11/8 13/10/8 
f 15/13/9 17/15/10 18/16/10 
f 18/16/10 16/14/9 15/13/9 
f 17/15/10 19/17/11 20/18/11 
f 20/18/11 18/16/10 17/15/10 
f 19/17/11 9/5/6 12/8/6 
f 12/8/6 20/18/11 19/17/11 
# 12 faces

#
# object feuillage_arbuste_unity
#

v  -496.6816 280.0000 346.4655
v  -416.6816 280.0000 346.4655
v  -416.6816 280.0000 266.4655
v  -496.6816 280.0000 266.4655
v  -496.6816 200.0000 346.4655
v  -416.6816 200.0000 346.4655
v  -416.6816 200.0000 266.4655
v  -496.6816 200.0000 266.4655
# 8 vertices

vn 0.0000 1.0000 -0.0000
vn 0.0000 0.0000 1.0000
vn 1.0000 0.0000 -0.0000
vn 0.0000 0.0000 -1.0000
vn -1.0000 0.0000 -0.0000
# 5 vertex normals

vt 0.0000 0.0000 0.0000
vt 1.0000 0.0000 0.0000
vt 1.0000 1.0000 0.0000
vt 0.0000 1.0000 0.0000
# 4 texture coords

o feuillage_arbuste_unity
g feuillage_arbuste_unity
usemtl wire_177148027
s 4
f 21/19/12 22/20/12 23/21/12 
f 23/21/12 24/22/12 21/19/12 
s 8
f 25/19/13 26/20/13 22/21/13 
f 22/21/13 21/22/13 25/19/13 
s 16
f 26/19/14 27/20/14 23/21/14 
f 23/21/14 22/22/14 26/19/14 
s 32
f 27/19/15 28/20/15 24/21/15 
f 24/21/15 23/22/15 27/19/15 
s 64
f 28/19/16 25/20/16 21/21/16 
f 21/21/16 24/22/16 28/19/16 
# 10 faces

