# 3ds Max Wavefront OBJ Exporter v0.97b - (c)2007 guruware
# File Created: 22.03.2019 15:32:58

mtllib fenetre.mtl

#
# object fenetre3
#

v  493.4073 223.2436 1841.0195
v  493.4073 281.2784 1841.0195
v  493.4073 281.2784 1830.1960
v  493.4073 223.2436 1830.1960
v  493.4073 223.2436 1771.2102
v  493.4073 214.2240 1771.2102
v  493.4073 214.2240 1830.1960
v  493.4073 214.2240 1841.0195
v  493.4073 214.2240 1896.7606
v  493.4073 223.2436 1896.7606
v  493.4073 150.2799 1830.1960
v  493.4073 150.2799 1841.0195
v  493.4073 150.2799 1771.2102
v  493.4073 141.2603 1771.2102
v  493.4073 141.2603 1830.1960
v  493.4073 141.2603 1841.0195
v  493.4073 141.2603 1896.7606
v  493.4073 150.2799 1896.7606
v  493.4073 80.6465 1830.1960
v  493.4073 80.6465 1841.0195
v  493.4073 281.2784 1771.2102
v  493.4073 289.9317 1762.5569
v  493.4073 223.2436 1762.5569
v  493.4073 214.2240 1762.5569
v  493.4073 150.2799 1762.5569
v  493.4073 141.2603 1762.5568
v  493.4073 80.6465 1771.2102
v  493.4073 71.9931 1762.5569
v  493.4073 71.9931 1830.1960
v  493.4073 71.9931 1841.0195
v  493.4073 80.6465 1896.7606
v  493.4073 71.9931 1905.4139
v  493.4073 141.2603 1905.4139
v  493.4073 150.2799 1905.4139
v  493.4073 214.2240 1905.4139
v  493.4073 223.2436 1905.4139
v  493.4073 281.2784 1896.7606
v  493.4073 289.9317 1905.4139
v  493.4073 289.9317 1841.0195
v  493.4073 289.9317 1830.1960
v  498.4073 281.2784 1830.1960
v  498.4073 281.2784 1841.0195
v  498.4073 223.2436 1841.0195
v  498.4073 223.2436 1830.1960
v  498.4073 214.2240 1771.2102
v  498.4073 223.2436 1771.2102
v  498.4073 214.2240 1830.1960
v  498.4073 214.2240 1841.0195
v  498.4073 223.2436 1896.7606
v  498.4073 214.2240 1896.7606
v  498.4073 150.2799 1830.1960
v  498.4073 150.2799 1841.0195
v  498.4073 141.2603 1771.2102
v  498.4073 150.2799 1771.2102
v  498.4073 141.2603 1830.1960
v  498.4073 141.2603 1841.0195
v  498.4073 150.2799 1896.7606
v  498.4073 141.2603 1896.7606
v  498.4073 80.6465 1830.1960
v  498.4073 80.6465 1841.0195
v  498.4073 289.9317 1762.5569
v  498.4073 281.2784 1771.2102
v  498.4073 223.2436 1762.5569
v  498.4073 214.2240 1762.5569
v  498.4073 150.2799 1762.5569
v  498.4073 141.2603 1762.5568
v  498.4073 80.6465 1771.2102
v  498.4073 71.9931 1762.5569
v  498.4073 71.9931 1830.1960
v  498.4073 71.9931 1841.0195
v  498.4073 80.6465 1896.7606
v  498.4073 71.9931 1905.4139
v  498.4073 141.2603 1905.4139
v  498.4073 150.2799 1905.4139
v  498.4073 214.2240 1905.4139
v  498.4073 223.2436 1905.4139
v  498.4073 281.2784 1896.7606
v  498.4073 289.9317 1905.4139
v  498.4073 289.9317 1841.0195
v  498.4073 289.9317 1830.1960
# 80 vertices

vn -1.0000 0.0000 -0.0000
vn 1.0000 0.0000 -0.0000
vn 0.0000 0.0000 -1.0000
vn 0.0000 0.0000 1.0000
vn 0.0000 -1.0000 -0.0000
vn 0.0000 1.0000 -0.0000
vn 0.0000 -1.0000 0.0000
# 7 vertex normals

vt 0.2220 0.4340 0.0000
vt 0.2220 0.5271 0.0000
vt 0.2112 0.5271 0.0000
vt 0.2112 0.4340 0.0000
vt 0.1429 0.4340 0.0000
vt 0.1429 0.4176 0.0000
vt 0.2112 0.4176 0.0000
vt 0.2220 0.4176 0.0000
vt 0.2857 0.4176 0.0000
vt 0.2857 0.4340 0.0000
vt 0.2112 0.3028 0.0000
vt 0.2220 0.3028 0.0000
vt 0.1429 0.3028 0.0000
vt 0.1429 0.2864 0.0000
vt 0.2112 0.2864 0.0000
vt 0.2220 0.2864 0.0000
vt 0.2857 0.2864 0.0000
vt 0.2857 0.3028 0.0000
vt 0.2112 0.1309 0.0000
vt 0.2220 0.1309 0.0000
vt 0.1429 0.5271 0.0000
vt 0.1429 0.1309 0.0000
vt 0.2857 0.1309 0.0000
vt 0.2857 0.5271 0.0000
# 24 texture coords

o fenetre3
g fenetre3
usemtl wire_184155229
s 64
f 1/1/1 2/2/1 3/3/1 
f 3/3/1 4/4/1 1/1/1 
f 4/4/1 5/5/1 6/6/1 
f 6/6/1 7/7/1 4/4/1 
f 1/1/1 4/4/1 7/7/1 
f 7/7/1 8/8/1 1/1/1 
f 8/8/1 9/9/1 10/10/1 
f 10/10/1 1/1/1 8/8/1 
f 8/8/1 7/7/1 11/11/1 
f 11/11/1 12/12/1 8/8/1 
f 11/11/1 13/13/1 14/14/1 
f 14/14/1 15/15/1 11/11/1 
f 12/12/1 11/11/1 15/15/1 
f 15/15/1 16/16/1 12/12/1 
f 16/16/1 17/17/1 18/18/1 
f 18/18/1 12/12/1 16/16/1 
f 16/16/1 15/15/1 19/19/1 
f 19/19/1 20/20/1 16/16/1 
s off
f 5/5/1 21/21/1 22/21/1 
f 22/21/1 23/5/1 5/5/1 
f 6/6/1 5/5/1 23/5/1 
f 23/5/1 24/6/1 6/6/1 
f 13/13/1 6/6/1 24/6/1 
f 24/6/1 25/13/1 13/13/1 
f 14/14/1 13/13/1 25/13/1 
f 25/13/1 26/14/1 14/14/1 
f 27/22/1 14/14/1 26/14/1 
f 26/14/1 28/22/1 27/22/1 
f 19/19/1 27/22/1 28/22/1 
f 28/22/1 29/19/1 19/19/1 
f 20/20/1 19/19/1 29/19/1 
f 29/19/1 30/20/1 20/20/1 
f 31/23/1 20/20/1 30/20/1 
f 30/20/1 32/23/1 31/23/1 
f 17/17/1 31/23/1 32/23/1 
f 32/23/1 33/17/1 17/17/1 
f 18/18/1 17/17/1 33/17/1 
f 33/17/1 34/18/1 18/18/1 
f 9/9/1 18/18/1 34/18/1 
f 34/18/1 35/9/1 9/9/1 
f 10/10/1 9/9/1 35/9/1 
f 35/9/1 36/10/1 10/10/1 
f 37/24/1 10/10/1 36/10/1 
f 36/10/1 38/24/1 37/24/1 
f 2/2/1 37/24/1 38/24/1 
f 38/24/1 39/2/1 2/2/1 
f 3/3/1 2/2/1 39/2/1 
f 39/2/1 40/3/1 3/3/1 
f 21/21/1 3/3/1 40/3/1 
f 40/3/1 22/21/1 21/21/1 
s 64
f 41/3/2 42/2/2 43/1/2 
f 43/1/2 44/4/2 41/3/2 
f 45/6/2 46/5/2 44/4/2 
f 44/4/2 47/7/2 45/6/2 
f 47/7/2 44/4/2 43/1/2 
f 43/1/2 48/8/2 47/7/2 
f 49/10/2 50/9/2 48/8/2 
f 48/8/2 43/1/2 49/10/2 
f 51/11/2 47/7/2 48/8/2 
f 48/8/2 52/12/2 51/11/2 
f 53/14/2 54/13/2 51/11/2 
f 51/11/2 55/15/2 53/14/2 
f 55/15/2 51/11/2 52/12/2 
f 52/12/2 56/16/2 55/15/2 
f 57/18/2 58/17/2 56/16/2 
f 56/16/2 52/12/2 57/18/2 
f 59/19/2 55/15/2 56/16/2 
f 56/16/2 60/20/2 59/19/2 
s off
f 61/21/2 62/21/2 46/5/2 
f 46/5/2 63/5/2 61/21/2 
f 63/5/2 46/5/2 45/6/2 
f 45/6/2 64/6/2 63/5/2 
f 64/6/2 45/6/2 54/13/2 
f 54/13/2 65/13/2 64/6/2 
f 65/13/2 54/13/2 53/14/2 
f 53/14/2 66/14/2 65/13/2 
f 66/14/2 53/14/2 67/22/2 
f 67/22/2 68/22/2 66/14/2 
f 68/22/2 67/22/2 59/19/2 
f 59/19/2 69/19/2 68/22/2 
f 69/19/2 59/19/2 60/20/2 
f 60/20/2 70/20/2 69/19/2 
f 70/20/2 60/20/2 71/23/2 
f 71/23/2 72/23/2 70/20/2 
f 72/23/2 71/23/2 58/17/2 
f 58/17/2 73/17/2 72/23/2 
f 73/17/2 58/17/2 57/18/2 
f 57/18/2 74/18/2 73/17/2 
f 74/18/2 57/18/2 50/9/2 
f 50/9/2 75/9/2 74/18/2 
f 75/9/2 50/9/2 49/10/2 
f 49/10/2 76/10/2 75/9/2 
f 76/10/2 49/10/2 77/24/2 
f 77/24/2 78/24/2 76/10/2 
f 78/24/2 77/24/2 42/2/2 
f 42/2/2 79/2/2 78/24/2 
f 79/2/2 42/2/2 41/3/2 
f 41/3/2 80/3/2 79/2/2 
f 80/3/2 41/3/2 62/21/2 
f 62/21/2 61/21/2 80/3/2 
s 1
f 41/3/3 44/4/3 4/4/3 
f 4/4/3 3/3/3 41/3/3 
f 43/1/4 42/2/4 2/2/4 
f 2/2/4 1/1/4 43/1/4 
f 45/6/5 47/7/5 7/7/5 
f 7/7/5 6/6/5 45/6/5 
s 2
f 44/4/6 46/5/6 5/5/6 
f 5/5/6 4/4/6 44/4/6 
f 49/10/6 43/1/6 1/1/6 
f 1/1/6 10/10/6 49/10/6 
s 1
f 48/8/5 50/9/5 9/9/5 
f 9/9/5 8/8/5 48/8/5 
s 2
f 52/12/4 48/8/4 8/8/4 
f 8/8/4 12/12/4 52/12/4 
f 47/7/3 51/11/3 11/11/3 
f 11/11/3 7/7/3 47/7/3 
s 1
f 53/14/7 55/15/7 15/15/7 
f 15/15/7 14/14/7 53/14/7 
f 51/11/6 54/13/6 13/13/6 
f 13/13/6 11/11/6 51/11/6 
f 57/18/6 52/12/6 12/12/6 
f 12/12/6 18/18/6 57/18/6 
f 56/16/5 58/17/5 17/17/5 
f 17/17/5 16/16/5 56/16/5 
s 2
f 60/20/4 56/16/4 16/16/4 
f 16/16/4 20/20/4 60/20/4 
f 55/15/3 59/19/3 19/19/3 
f 19/19/3 15/15/3 55/15/3 
s 1
f 46/5/4 62/21/4 21/21/4 
f 21/21/4 5/5/4 46/5/4 
s 2
f 54/13/4 45/6/4 6/6/4 
f 6/6/4 13/13/4 54/13/4 
f 67/22/4 53/14/4 14/14/4 
f 14/14/4 27/22/4 67/22/4 
s 1
f 59/19/6 67/22/6 27/22/6 
f 27/22/6 19/19/6 59/19/6 
f 71/23/6 60/20/6 20/20/6 
f 20/20/6 31/23/6 71/23/6 
s 2
f 58/17/3 71/23/3 31/23/3 
f 31/23/3 17/17/3 58/17/3 
f 50/9/3 57/18/3 18/18/3 
f 18/18/3 9/9/3 50/9/3 
s 1
f 77/24/3 49/10/3 10/10/3 
f 10/10/3 37/24/3 77/24/3 
s 2
f 42/2/5 77/24/5 37/24/5 
f 37/24/5 2/2/5 42/2/5 
f 62/21/5 41/3/5 3/3/5 
f 3/3/5 21/21/5 62/21/5 
# 148 faces

