# 3ds Max Wavefront OBJ Exporter v0.97b - (c)2007 guruware
# File Created: 22.03.2019 16:51:03

mtllib marches circulaires.mtl

#
# object marche_unity
#

v  -1981.6772 19.9944 1893.4738
v  -1951.8124 19.9944 1985.3884
v  -1951.8124 30.1329 1985.3884
v  -1981.6772 30.1329 1893.4738
v  -1873.6251 19.9944 2042.1947
v  -1873.6251 30.1329 2042.1947
v  -1776.9803 19.9944 2042.1947
v  -1776.9803 30.1329 2042.1947
v  -1698.7931 19.9944 1985.3883
v  -1698.7931 30.1329 1985.3883
v  -1668.9282 19.9944 1893.4738
v  -1668.9282 30.1329 1893.4738
v  -2014.1907 9.0968 1892.5323
v  -1978.1163 9.0968 2003.5579
v  -1978.1163 19.6241 2003.5579
v  -2014.1907 19.6241 1892.5323
v  -1883.6724 9.0968 2072.1755
v  -1883.6724 19.6241 2072.1755
v  -1766.9331 9.0968 2072.1755
v  -1766.9331 19.6241 2072.1755
v  -1672.4891 9.0968 2003.5579
v  -1672.4891 19.6241 2003.5579
v  -1636.4148 9.0968 1892.5323
v  -1636.4148 19.6241 1892.5323
v  -2045.4949 0.0000 1893.4752
v  -2003.8236 0.0000 2021.7263
v  -2003.8236 9.2368 2021.7263
v  -2045.4949 9.2368 1893.4752
v  -1894.7268 0.0000 2100.9897
v  -1894.7268 9.2368 2100.9897
v  -1759.8757 0.0000 2100.9897
v  -1759.8757 9.2368 2100.9897
v  -1650.7788 0.0000 2021.7262
v  -1650.7788 9.2368 2021.7262
v  -1609.1077 0.0000 1893.4752
v  -1609.1077 9.2368 1893.4752
# 36 vertices

vn -0.9511 0.0000 0.3090
vn -0.8090 0.0000 0.5878
vn -0.3090 0.0000 0.9511
vn 0.3090 0.0000 0.9511
vn 0.8090 0.0000 0.5878
vn 0.9511 0.0000 0.3090
vn 0.0000 1.0000 -0.0000
vn -0.9511 -0.0000 0.3090
vn -0.8090 -0.0000 0.5878
# 9 vertex normals

vt 0.2500 0.0000 1.0000
vt 0.3500 0.0000 1.0000
vt 0.3500 1.0000 1.0000
vt 0.2500 1.0000 1.0000
vt 0.4500 0.0000 1.0000
vt 0.4500 1.0000 1.0000
vt 0.5500 0.0000 1.0000
vt 0.5500 1.0000 1.0000
vt 0.6500 0.0000 1.0000
vt 0.6500 1.0000 1.0000
vt 0.7500 0.0000 1.0000
vt 0.7500 1.0000 1.0000
vt 0.3837 1.0000 -0.6180
vt 0.1500 1.0000 -1.0000
vt 0.0500 1.0000 -1.0000
vt 0.1219 1.0000 -0.6180
# 16 texture coords

o marche_unity
g marche_unity
usemtl wire_140088225
s 8
f 1/1/1 2/2/2 3/3/2 
f 3/3/2 4/4/1 1/1/1 
f 2/2/2 5/5/3 6/6/3 
f 6/6/3 3/3/2 2/2/2 
f 5/5/3 7/7/4 8/8/4 
f 8/8/4 6/6/3 5/5/3 
f 7/7/4 9/9/5 10/10/5 
f 10/10/5 8/8/4 7/7/4 
f 9/9/5 11/11/6 12/12/6 
f 12/12/6 10/10/5 9/9/5 
s 1
f 12/12/7 4/13/7 3/14/7 
f 3/14/7 6/15/7 8/16/7 
f 12/12/7 3/14/7 8/16/7 
f 10/10/7 12/12/7 8/16/7 
s 8
f 13/1/8 14/2/2 15/3/9 
f 15/3/9 16/4/8 13/1/8 
f 14/2/2 17/5/3 18/6/3 
f 18/6/3 15/3/9 14/2/2 
f 17/5/3 19/7/4 20/8/4 
f 20/8/4 18/6/3 17/5/3 
f 19/7/4 21/9/5 22/10/5 
f 22/10/5 20/8/4 19/7/4 
f 21/9/5 23/11/6 24/12/6 
f 24/12/6 22/10/5 21/9/5 
s 1
f 24/12/7 16/13/7 15/14/7 
f 15/14/7 18/15/7 20/16/7 
f 24/12/7 15/14/7 20/16/7 
f 22/10/7 24/12/7 20/16/7 
s 8
f 25/1/1 26/2/2 27/3/2 
f 27/3/2 28/4/1 25/1/1 
f 26/2/2 29/5/3 30/6/3 
f 30/6/3 27/3/2 26/2/2 
f 29/5/3 31/7/4 32/8/4 
f 32/8/4 30/6/3 29/5/3 
f 31/7/4 33/9/5 34/10/5 
f 34/10/5 32/8/4 31/7/4 
f 33/9/5 35/11/6 36/12/6 
f 36/12/6 34/10/5 33/9/5 
s 1
f 36/12/7 28/13/7 27/14/7 
f 27/14/7 30/15/7 32/16/7 
f 36/12/7 27/14/7 32/16/7 
f 34/10/7 36/12/7 32/16/7 
# 42 faces

