# 3ds Max Wavefront OBJ Exporter v0.97b - (c)2007 guruware
# File Created: 22.03.2019 16:24:17

mtllib porte simple.mtl

#
# object pourtour_porte_unity
#

v  -2199.7969 250.0000 -490.9352
v  -2079.7969 250.0000 -490.9352
v  -2079.7969 250.0000 -500.9352
v  -2199.7969 250.0000 -500.9352
v  -2079.7969 0.0563 -490.9352
v  -2079.7969 0.0563 -500.9352
v  -2199.7969 0.0563 -500.9352
v  -2199.7969 0.0563 -490.9352
v  -2089.7969 240.0000 -490.9352
v  -2089.7969 0.0563 -490.9352
v  -2189.7969 240.0000 -490.9352
v  -2189.7969 0.0563 -490.9352
v  -2189.7969 240.0000 -500.9352
v  -2189.7969 0.0563 -500.9352
v  -2089.7969 240.0000 -500.9352
v  -2089.7969 0.0563 -500.9352
# 16 vertices

vn 0.0000 1.0000 -0.0000
vn 1.0000 0.0000 -0.0000
vn -1.0000 0.0000 -0.0000
vn 0.0000 0.0000 1.0000
vn 0.0000 0.0000 -1.0000
vn 0.0000 -1.0000 -0.0000
# 6 vertex normals

vt 0.0000 0.0000 0.0000
vt 1.0000 0.0000 0.0000
vt 1.0000 1.0000 0.0000
vt 0.0000 1.0000 0.0000
# 4 texture coords

o pourtour_porte_unity
g pourtour_porte_unity
usemtl wire_184155229
s 4
f 1/1/1 2/2/1 3/3/1 
f 3/3/1 4/4/1 1/1/1 
s 16
f 5/1/2 6/2/2 3/3/2 
f 3/3/2 2/4/2 5/1/2 
s 64
f 7/1/3 8/2/3 1/3/3 
f 1/3/3 4/4/3 7/1/3 
s off
f 5/2/4 2/3/4 9/3/4 
f 9/3/4 10/2/4 5/2/4 
f 2/3/4 1/4/4 11/4/4 
f 11/4/4 9/3/4 2/3/4 
f 1/4/4 8/1/4 12/1/4 
f 12/1/4 11/4/4 1/4/4 
f 7/2/5 4/3/5 13/3/5 
f 13/3/5 14/2/5 7/2/5 
f 4/3/5 3/4/5 15/4/5 
f 15/4/5 13/3/5 4/3/5 
f 3/4/5 6/1/5 16/1/5 
f 16/1/5 15/4/5 3/4/5 
s 1
f 15/3/6 9/4/6 11/3/6 
f 11/3/6 13/4/6 15/3/6 
s 2
f 13/4/2 11/3/2 12/1/2 
f 12/1/2 14/2/2 13/4/2 
f 16/1/3 10/2/3 9/4/3 
f 9/4/3 15/3/3 16/1/3 
# 24 faces

#
# object porte_unity
#

v  -2089.7969 240.0893 -493.0706
v  -2189.7969 240.0893 -493.0706
v  -2189.7969 3.2062 -493.0706
v  -2089.7969 3.2062 -493.0706
v  -2189.7969 3.2062 -498.0706
v  -2189.7969 240.0893 -498.0706
v  -2089.7969 240.0893 -498.0706
v  -2089.7969 3.2062 -498.0706
# 8 vertices

vn 0.0000 0.0000 1.0000
vn 0.0000 0.0000 -1.0000
vn 1.0000 0.0000 -0.0000
vn 0.0000 1.0000 -0.0000
vn -1.0000 0.0000 -0.0000
# 5 vertex normals

vt 1.0000 1.0000 0.0000
vt 0.0000 1.0000 0.0000
vt 0.0000 0.0000 0.0000
vt 1.0000 0.0000 0.0000
# 4 texture coords

o porte_unity
g porte_unity
usemtl wire_184155229
s 8
f 17/5/7 18/6/7 19/7/7 
f 19/7/7 20/8/7 17/5/7 
f 21/7/8 22/6/8 23/5/8 
f 23/5/8 24/8/8 21/7/8 
s 2
f 24/8/9 23/5/9 17/5/9 
f 17/5/9 20/8/9 24/8/9 
s 1
f 23/5/10 22/6/10 18/6/10 
f 18/6/10 17/5/10 23/5/10 
s 2
f 22/6/11 21/7/11 19/7/11 
f 19/7/11 18/6/11 22/6/11 
# 10 faces

