# 3ds Max Wavefront OBJ Exporter v0.97b - (c)2007 guruware
# File Created: 22.03.2019 16:51:15

mtllib pouf carre.mtl

#
# object pouf_carre_unity
#

v  -1737.6652 79.8957 1746.0973
v  -1682.0609 79.8957 1768.6398
v  -1659.5184 79.8957 1713.0355
v  -1715.1227 79.8957 1690.4930
v  -1737.6652 29.8957 1746.0973
v  -1682.0609 29.8957 1768.6398
v  -1659.5184 29.8957 1713.0355
v  -1715.1227 29.8957 1690.4930
# 8 vertices

vn 0.0000 1.0000 -0.0000
vn -0.3757 0.0000 0.9267
vn 0.9267 0.0000 0.3757
vn 0.3757 0.0000 -0.9267
vn -0.9267 0.0000 -0.3757
# 5 vertex normals

vt 0.0000 0.0000 0.0000
vt 1.0000 0.0000 0.0000
vt 1.0000 1.0000 0.0000
vt 0.0000 1.0000 0.0000
# 4 texture coords

o pouf_carre_unity
g pouf_carre_unity
usemtl wire_184155229
s 4
f 1/1/1 2/2/1 3/3/1 
f 3/3/1 4/4/1 1/1/1 
s 8
f 5/1/2 6/2/2 2/3/2 
f 2/3/2 1/4/2 5/1/2 
s 16
f 6/1/3 7/2/3 3/3/3 
f 3/3/3 2/4/3 6/1/3 
s 32
f 7/1/4 8/2/4 4/3/4 
f 4/3/4 3/4/4 7/1/4 
s 64
f 8/1/5 5/2/5 1/3/5 
f 1/3/5 4/4/5 8/1/5 
# 10 faces

