# 3ds Max Wavefront OBJ Exporter v0.97b - (c)2007 guruware
# File Created: 22.03.2019 16:32:14

mtllib table ronde.mtl

#
# object table_unity
#

v  -2093.4316 70.0000 175.0828
v  -2108.7102 70.0000 128.0600
v  -2108.7102 80.0000 128.0600
v  -2093.4316 80.0000 175.0828
v  -2148.7102 70.0000 98.9983
v  -2148.7102 80.0000 98.9983
v  -2198.1531 70.0000 98.9983
v  -2198.1531 80.0000 98.9983
v  -2238.1531 70.0000 128.0600
v  -2238.1531 80.0000 128.0600
v  -2253.4316 70.0000 175.0828
v  -2253.4316 80.0000 175.0828
v  -2238.1531 70.0000 222.1057
v  -2238.1531 80.0000 222.1057
v  -2198.1531 70.0000 251.1673
v  -2198.1531 80.0000 251.1673
v  -2148.7102 70.0000 251.1673
v  -2148.7102 80.0000 251.1673
v  -2108.7102 70.0000 222.1056
v  -2108.7102 80.0000 222.1056
v  -2146.9895 70.0000 155.8715
v  -2140.7476 70.0000 175.0828
v  -2140.7476 -0.0000 175.0828
v  -2146.9895 -0.0000 155.8715
v  -2146.9895 70.0000 194.2941
v  -2146.9895 -0.0000 194.2941
v  -2163.3315 70.0000 206.1673
v  -2163.3315 -0.0000 206.1673
v  -2183.5317 70.0000 206.1673
v  -2183.5317 -0.0000 206.1673
v  -2199.8738 70.0000 194.2941
v  -2199.8738 -0.0000 194.2941
v  -2206.1157 70.0000 175.0828
v  -2206.1157 -0.0000 175.0828
v  -2199.8738 70.0000 155.8715
v  -2199.8738 -0.0000 155.8715
v  -2183.5315 70.0000 143.9983
v  -2183.5315 -0.0000 143.9983
v  -2163.3318 70.0000 143.9983
v  -2163.3318 -0.0000 143.9983
# 40 vertices

vn 1.0000 0.0000 -0.0000
vn 0.8090 0.0000 -0.5878
vn 0.3090 0.0000 -0.9511
vn -0.3090 0.0000 -0.9511
vn -0.8090 0.0000 -0.5878
vn -1.0000 0.0000 0.0000
vn -0.8090 0.0000 0.5878
vn -0.3090 0.0000 0.9511
vn 0.3090 0.0000 0.9511
vn 0.8090 0.0000 0.5878
vn 0.0000 1.0000 -0.0000
vn 0.9511 0.0000 -0.3090
vn 0.9511 0.0000 0.3090
vn 0.5878 0.0000 0.8090
vn 0.0000 0.0000 1.0000
vn -0.5878 0.0000 0.8090
vn -0.9511 0.0000 0.3090
vn -0.9511 0.0000 -0.3090
vn -0.5878 0.0000 -0.8090
vn 0.0000 0.0000 -1.0000
vn 0.5878 0.0000 -0.8090
# 21 vertex normals

vt 0.7500 0.0000 1.0000
vt 0.8500 0.0000 1.0000
vt 0.8500 1.0000 1.0000
vt 0.7500 1.0000 1.0000
vt 0.9500 0.0000 1.0000
vt 0.9500 1.0000 1.0000
vt -0.0500 0.0000 1.0000
vt 0.0500 0.0000 1.0000
vt 0.0500 1.0000 1.0000
vt -0.0500 1.0000 1.0000
vt 0.1500 0.0000 1.0000
vt 0.1500 1.0000 1.0000
vt 0.2500 0.0000 1.0000
vt 0.2500 1.0000 1.0000
vt 0.3500 0.0000 1.0000
vt 0.3500 1.0000 1.0000
vt 0.4500 0.0000 1.0000
vt 0.4500 1.0000 1.0000
vt 0.5500 0.0000 1.0000
vt 0.5500 1.0000 1.0000
vt 0.6500 0.0000 1.0000
vt 0.6500 1.0000 1.0000
vt 0.8781 1.0000 0.6180
vt 0.6618 1.0000 -0.0000
vt 0.3837 1.0000 -0.6180
vt 0.1500 1.0000 -1.0000
vt 0.0500 1.0000 -1.0000
vt 0.1219 1.0000 -0.6180
vt 0.3382 0.0000 0.0000
vt 0.1219 0.0000 -0.6180
vt 0.0500 0.0000 -1.0000
vt 0.1500 0.0000 -1.0000
vt 0.3837 0.0000 -0.6180
vt 0.6618 0.0000 0.0000
vt 0.8781 0.0000 0.6180
# 35 texture coords

o table_unity
g table_unity
usemtl wire_184155229
s 2
f 1/1/1 2/2/2 3/3/2 
f 3/3/2 4/4/1 1/1/1 
f 2/2/2 5/5/3 6/6/3 
f 6/6/3 3/3/2 2/2/2 
f 5/7/3 7/8/4 8/9/4 
f 8/9/4 6/10/3 5/7/3 
f 7/8/4 9/11/5 10/12/5 
f 10/12/5 8/9/4 7/8/4 
f 9/11/5 11/13/6 12/14/6 
f 12/14/6 10/12/5 9/11/5 
f 11/13/6 13/15/7 14/16/7 
f 14/16/7 12/14/6 11/13/6 
f 13/15/7 15/17/8 16/18/8 
f 16/18/8 14/16/7 13/15/7 
f 15/17/8 17/19/9 18/20/9 
f 18/20/9 16/18/8 15/17/8 
f 17/19/9 19/21/10 20/22/10 
f 20/22/10 18/20/9 17/19/9 
f 19/21/10 1/1/1 4/4/1 
f 4/4/1 20/22/10 19/21/10 
s 1
f 4/4/11 3/3/11 6/6/11 
f 6/6/11 8/23/11 10/24/11 
f 10/24/11 12/25/11 14/26/11 
f 14/26/11 16/27/11 18/28/11 
f 10/24/11 14/26/11 18/28/11 
f 6/6/11 10/24/11 18/28/11 
f 4/4/11 6/6/11 18/28/11 
f 20/22/11 4/4/11 18/28/11 
s off
f 21/2/12 22/1/12 23/1/12 
f 23/1/12 24/2/12 21/2/12 
f 22/1/13 25/29/13 26/29/13 
f 26/29/13 23/1/13 22/1/13 
f 25/29/14 27/30/14 28/30/14 
f 28/30/14 26/29/14 25/29/14 
f 27/30/15 29/31/15 30/31/15 
f 30/31/15 28/30/15 27/30/15 
f 29/31/16 31/32/16 32/32/16 
f 32/32/16 30/31/16 29/31/16 
f 31/32/17 33/33/17 34/33/17 
f 34/33/17 32/32/17 31/32/17 
f 33/33/18 35/34/18 36/34/18 
f 36/34/18 34/33/18 33/33/18 
f 35/34/19 37/35/19 38/35/19 
f 38/35/19 36/34/19 35/34/19 
f 37/35/20 39/5/20 40/5/20 
f 40/5/20 38/35/20 37/35/20 
f 39/5/21 21/2/21 24/2/21 
f 24/2/21 40/5/21 39/5/21 
# 48 faces

