# 3ds Max Wavefront OBJ Exporter v0.97b - (c)2007 guruware
# File Created: 22.03.2019 15:53:08

mtllib poutres courtes.mtl

#
# object poutre002
#

v  117.4211 0.0000 1234.7626
v  132.4211 0.0000 1234.7626
v  132.4211 460.0000 1234.7626
v  117.4211 460.0000 1234.7626
v  132.4211 0.0000 1219.7626
v  132.4211 460.0000 1219.7626
v  117.4211 0.0000 1219.7626
v  117.4211 460.0000 1219.7626
# 8 vertices

vn 0.0000 0.0000 1.0000
vn 1.0000 0.0000 -0.0000
vn 0.0000 0.0000 -1.0000
vn -1.0000 0.0000 -0.0000
# 4 vertex normals

vt 0.0000 0.0000 0.0000
vt 1.0000 0.0000 0.0000
vt 1.0000 1.0000 0.0000
vt 0.0000 1.0000 0.0000
# 4 texture coords

o poutre002
g poutre002
usemtl wire_184155229
s 8
f 1/1/1 2/2/1 3/3/1 
f 3/3/1 4/4/1 1/1/1 
s 16
f 2/1/2 5/2/2 6/3/2 
f 6/3/2 3/4/2 2/1/2 
s 32
f 5/1/3 7/2/3 8/3/3 
f 8/3/3 6/4/3 5/1/3 
s 64
f 7/1/4 1/2/4 4/3/4 
f 4/3/4 8/4/4 7/1/4 
# 8 faces

