# 3ds Max Wavefront OBJ Exporter v0.97b - (c)2007 guruware
# File Created: 22.03.2019 16:33:56

mtllib poutres.mtl

#
# object poutre008
#

v  -1439.9875 0.0000 -297.8234
v  -1424.9875 0.0000 -297.8234
v  -1424.9875 480.0000 -297.8234
v  -1439.9875 480.0000 -297.8234
v  -1424.9875 0.0000 -312.8234
v  -1424.9875 480.0000 -312.8234
v  -1439.9875 0.0000 -312.8234
v  -1439.9875 480.0000 -312.8234
# 8 vertices

vn 0.0000 0.0000 1.0000
vn 1.0000 0.0000 -0.0000
vn -1.0000 0.0000 -0.0000
# 3 vertex normals

vt 0.0000 0.0000 0.0000
vt 1.0000 0.0000 0.0000
vt 1.0000 1.0000 0.0000
vt 0.0000 1.0000 0.0000
# 4 texture coords

o poutre008
g poutre008
usemtl wire_184155229
s 8
f 1/1/1 2/2/1 3/3/1 
f 3/3/1 4/4/1 1/1/1 
s 16
f 2/1/2 5/2/2 6/3/2 
f 6/3/2 3/4/2 2/1/2 
s 64
f 7/1/3 1/2/3 4/3/3 
f 4/3/3 8/4/3 7/1/3 
# 6 faces

